<?xml version="1.0" encoding="UTF-8"?>
<!DOCTYPE svg PUBLIC "-//W3C//DTD SVG 1.1//EN" "http://www.w3.org/Graphics/SVG/1.1/DTD/svg11.dtd">
<!-- Creator: CorelDRAW 2019 (64-Bit) -->
<svg xmlns="http://www.w3.org/2000/svg" xml:space="preserve" width="93mm" height="55mm" version="1.1" style="shape-rendering:geometricPrecision; text-rendering:geometricPrecision; image-rendering:optimizeQuality; fill-rule:evenodd; clip-rule:evenodd"
viewBox="0 0 93 55"
 xmlns:xlink="http://www.w3.org/1999/xlink"
 xmlns:xodm="http://www.corel.com/coreldraw/odm/2003">
 <defs>
  <style type="text/css">
   <![CDATA[
    .fil6 {fill:#FEFEFE}
    .fil3 {fill:#FDFDFD}
    .fil8 {fill:#2B2A29;fill-rule:nonzero}
    .fil7 {fill:#2B2A29;fill-rule:nonzero}
    .fil0 {fill:#E73856;fill-rule:nonzero}
    .fil11 {fill:url(#id0)}
    .fil4 {fill:url(#id1)}
    .fil5 {fill:url(#id2)}
    .fil2 {fill:url(#id3)}
    .fil1 {fill:url(#id4)}
    .fil9 {fill:url(#id5)}
    .fil10 {fill:url(#id6)}
    .fil12 {fill:url(#id7)}
   ]]>
  </style>
  <linearGradient id="id0" gradientUnits="userSpaceOnUse" x1="69.0571" y1="18.5524" x2="77.1436" y2="15.3178">
   <stop offset="0" style="stop-opacity:1; stop-color:#E73856"/>
   <stop offset="1" style="stop-opacity:1; stop-color:#CD2844"/>
  </linearGradient>
  <linearGradient id="id1" gradientUnits="userSpaceOnUse" x1="52.9054" y1="6.1443" x2="54.164" y2="9.6806">
   <stop offset="0" style="stop-opacity:1; stop-color:#DD0D7B"/>
   <stop offset="1" style="stop-opacity:1; stop-color:#A71A65"/>
  </linearGradient>
  <linearGradient id="id2" gradientUnits="userSpaceOnUse" x1="52.8232" y1="5.8055" x2="56.2252" y2="14.0586">
   <stop offset="0" style="stop-opacity:1; stop-color:#E5097F"/>
   <stop offset="1" style="stop-opacity:1; stop-color:#A71A65"/>
  </linearGradient>
  <linearGradient id="id3" gradientUnits="userSpaceOnUse" x1="80.7222" y1="17.2341" x2="90.7012" y2="24.8783">
   <stop offset="0" style="stop-opacity:1; stop-color:#7CC4E1"/>
   <stop offset="1" style="stop-opacity:1; stop-color:#1175B6"/>
  </linearGradient>
  <linearGradient id="id4" gradientUnits="userSpaceOnUse" x1="81.0619" y1="17.5886" x2="85.0953" y2="21.0047">
   <stop offset="0" style="stop-opacity:1; stop-color:#47AAD6"/>
   <stop offset="1" style="stop-opacity:1; stop-color:#1175B6"/>
  </linearGradient>
  <linearGradient id="id5" gradientUnits="userSpaceOnUse" x1="64.8804" y1="4.1969" x2="65.1283" y2="6.5882">
   <stop offset="0" style="stop-opacity:1; stop-color:#69BB84"/>
   <stop offset="1" style="stop-opacity:1; stop-color:#29A667"/>
  </linearGradient>
  <linearGradient id="id6" gradientUnits="userSpaceOnUse" x1="64.8805" y1="3.9736" x2="65.7482" y2="9.6249">
   <stop offset="0" style="stop-opacity:1; stop-color:#91CA9E"/>
   <stop offset="1" style="stop-opacity:1; stop-color:#29A667"/>
  </linearGradient>
  <linearGradient id="id7" gradientUnits="userSpaceOnUse" xlink:href="#id0" x1="71.6723" y1="10.9132" x2="72.1195" y2="14.6984">
  </linearGradient>
 </defs>
 <g id="Layer_x0020_1">
  <metadata id="CorelCorpID_0Corel-Layer"/>
  <g id="_1935848410736">
   <path class="fil0" d="M65.8871 36.2826l-2.571 4.2731c5.9162,0.7656 11.6793,-2.6989 13.6143,-8.5718 2.1789,-6.6134 -1.4292,-13.7665 -8.0425,-15.9453 -6.7022,-2.2083 -13.8079,1.5629 -15.9552,8.059l4.843 0c1.8836,-3.4492 6.0394,-5.1439 9.8533,-3.8873 3.3916,1.1175 5.6725,4.2872 5.6725,7.8359 0,2.566 -1.1755,4.8624 -3.0162,6.3793 -1.2253,1.0099 -2.814,1.692 -4.3982,1.8571z"/>
   <g>
    <path class="fil1" d="M89.3398 25.6644c3.4464,-2.0014 4.6177,-6.4177 2.6163,-9.864 -2.0014,-3.4463 -6.4177,-4.6177 -9.864,-2.6163 -3.4463,2.0014 -4.6177,6.4178 -2.6163,9.8641 2.0014,3.4463 6.4177,4.6177 9.864,2.6162z"/>
    <path class="fil2" d="M86.6898 23.056c2.4843,-1.4428 3.3287,-4.6265 1.8859,-7.1109 -1.4427,-2.4844 -4.6264,-3.3288 -7.1108,-1.886 -2.4844,1.4428 -3.3288,4.6264 -1.886,7.1108 1.4428,2.4845 4.6264,3.3289 7.1109,1.8861z"/>
    <path class="fil3" d="M88.1109 23.5481c2.2774,-1.3226 3.0515,-4.2411 1.7289,-6.5187 -1.3227,-2.2775 -4.2412,-3.0515 -6.5187,-1.7289 -2.2775,1.3227 -3.0516,4.2412 -1.729,6.5187 1.3227,2.2775 4.2412,3.0516 6.5188,1.7289z"/>
    <path class="fil3" d="M82.018 15.5528c0.4961,-0.4419 0.6911,-1.0329 0.4353,-1.3201 -0.2557,-0.2872 -0.8653,-0.1618 -1.3615,0.28 -0.4961,0.4419 -0.6911,1.0329 -0.4353,1.3201 0.2557,0.2872 0.8652,0.1618 1.3615,-0.28z"/>
    <path class="fil3" d="M80.3519 17.0955c0.1348,-0.3254 0.0914,-0.6523 -0.0969,-0.7302 -0.1882,-0.078 -0.4501,0.1224 -0.5848,0.4477 -0.1347,0.3254 -0.0914,0.6523 0.0969,0.7303 0.1883,0.0779 0.4501,-0.1226 0.5848,-0.4478z"/>
   </g>
   <g>
    <path class="fil4" d="M55.1088 14.0558c2.83,0 5.1244,-2.2943 5.1244,-5.1244 0,-2.8302 -2.2944,-5.1244 -5.1244,-5.1244 -2.8301,0 -5.1244,2.2942 -5.1244,5.1244 0,2.8301 2.2943,5.1244 5.1244,5.1244z"/>
    <path class="fil5" d="M54.4116 11.5088c2.0402,0 3.6941,-1.6539 3.6941,-3.6941 0,-2.0402 -1.6539,-3.6941 -3.6941,-3.6941 -2.0402,0 -3.6941,1.6539 -3.6941,3.6941 0,2.0402 1.6539,3.6941 3.6941,3.6941z"/>
    <path class="fil6" d="M55.1088 12.3179c1.8702,0 3.3864,-1.5162 3.3864,-3.3865 0,-1.8703 -1.5162,-3.3865 -3.3864,-3.3865 -1.8704,0 -3.3865,1.5162 -3.3865,3.3865 0,1.8703 1.5161,3.3865 3.3865,3.3865z"/>
    <path class="fil6" d="M54.2185 5.2351c0.4623,-0.0944 0.7928,-0.3878 0.7381,-0.6553 -0.0546,-0.2676 -0.4737,-0.408 -0.9359,-0.3137 -0.4623,0.0944 -0.7928,0.3878 -0.7381,0.6554 0.0546,0.2675 0.4737,0.408 0.9359,0.3136z"/>
    <path class="fil6" d="M52.6454 5.5883c0.1987,-0.1517 0.2886,-0.368 0.2008,-0.483 -0.0878,-0.115 -0.3201,-0.0853 -0.5188,0.0664 -0.1989,0.1518 -0.2888,0.368 -0.201,0.483 0.0879,0.115 0.3201,0.0853 0.519,-0.0664z"/>
   </g>
   <path class="fil0" d="M68.2054 15.115c0,-2.0156 1.6398,-3.6555 3.6557,-3.6555 2.0154,0 3.6553,1.6399 3.6553,3.6555 0,1.4036 -0.797,2.6224 -1.9609,3.2344 0.3083,0.2847 0.6024,0.5846 0.8812,0.8983 1.3773,-0.8617 2.2956,-2.3919 2.2956,-4.1327 0,-2.6859 -2.1853,-4.8712 -4.8712,-4.8712 -2.6861,0 -4.8714,2.1853 -4.8714,4.8712 0,0.0135 0.0004,0.027 0.0008,0.0404 0.4165,0.0664 0.8261,0.153 1.2281,0.2593 -0.0084,-0.0988 -0.0132,-0.1987 -0.0132,-0.2997z"/>
   <path class="fil7" d="M21.5316 51.2943c-0.2712,0 -0.4584,-0.2179 -0.4209,-0.4849 0.0381,-0.2712 0.2865,-0.4888 0.5578,-0.4888 0.2712,0 0.4582,0.2176 0.4201,0.4888 -0.0375,0.267 -0.2858,0.4849 -0.557,0.4849z"/>
   <path class="fil7" d="M37.5146 51.2943c-0.2712,0 -0.4584,-0.2179 -0.4209,-0.4849 0.0381,-0.2712 0.2865,-0.4888 0.5578,-0.4888 0.2712,0 0.4582,0.2176 0.4201,0.4888 -0.0375,0.267 -0.2858,0.4849 -0.557,0.4849z"/>
   <path class="fil7" d="M51.6716 51.2943c-0.2712,0 -0.4584,-0.2179 -0.4209,-0.4849 0.0381,-0.2712 0.2865,-0.4888 0.5578,-0.4888 0.2712,0 0.4582,0.2176 0.4201,0.4888 -0.0375,0.267 -0.2858,0.4849 -0.557,0.4849z"/>
   <path class="fil7" d="M-0.0667 52.0046l0.3355 0 0.2983 -1.4166 1.5797 0 -0.2982 1.4166 0.3401 0 0.6478 -3.071 -0.3355 0 -0.289 1.3655 -1.5797 0 0.2843 -1.3655 -0.3355 0 -0.6478 3.071zm3.9657 0.0466c0.2423,0 0.5219,-0.0792 0.7223,-0.2097l-0.0932 -0.2516c-0.1724,0.0932 -0.3728,0.1724 -0.6012,0.1724 -0.3448,0 -0.5778,-0.2423 -0.5778,-0.6617 0,-0.042 0.0047,-0.0886 0.0093,-0.1305l1.3981 -0.0187c0.0558,-0.1398 0.0978,-0.3355 0.0978,-0.4939 0,-0.4101 -0.233,-0.713 -0.713,-0.713 -0.6477,0 -1.1277,0.5871 -1.1277,1.37 0,0.6058 0.3774,0.9367 0.8854,0.9367zm-0.494 -1.3467c0.0746,-0.3682 0.3588,-0.6758 0.7037,-0.6758 0.3216,0 0.4054,0.2191 0.4054,0.4148 0,0.0699 -0.0139,0.1631 -0.0372,0.247l-1.0719 0.014zm1.5285 1.1789c0.1631,0.1026 0.3728,0.1678 0.6245,0.1678 0.4519,0 0.7922,-0.2377 0.7922,-0.6431 0,-0.6151 -0.7037,-0.6431 -0.7037,-1.0532 0,-0.233 0.177,-0.3262 0.4008,-0.3262 0.1537,0 0.3308,0.042 0.4426,0.084l0.0513 -0.2796c-0.1724,-0.0699 -0.3635,-0.0886 -0.5126,-0.0886 -0.4847,0 -0.7269,0.2796 -0.7269,0.6291 0,0.5872 0.7082,0.6244 0.7082,1.0438 0,0.233 -0.2189,0.3449 -0.4566,0.3449 -0.1958,0 -0.3681,-0.0606 -0.4987,-0.1399l-0.1211 0.261zm1.6311 0c0.1631,0.1026 0.3728,0.1678 0.6244,0.1678 0.452,0 0.7922,-0.2377 0.7922,-0.6431 0,-0.6151 -0.7037,-0.6431 -0.7037,-1.0532 0,-0.233 0.1771,-0.3262 0.4008,-0.3262 0.1538,0 0.3308,0.042 0.4426,0.084l0.0513 -0.2796c-0.1724,-0.0699 -0.3634,-0.0886 -0.5126,-0.0886 -0.4846,0 -0.7269,0.2796 -0.7269,0.6291 0,0.5872 0.7083,0.6244 0.7083,1.0438 0,0.233 -0.219,0.3449 -0.4567,0.3449 -0.1957,0 -0.3681,-0.0606 -0.4986,-0.1399l-0.1211 0.261zm1.7568 0.1212l0.3355 0 0.466 -2.2042 -0.3355 0 -0.466 2.2042zm0.7549 -2.7028c0.1305,0 0.2563,-0.1072 0.2563,-0.2656 0,-0.1119 -0.0745,-0.1958 -0.2051,-0.1958 -0.1304,0 -0.2563,0.1026 -0.2563,0.2657 0,0.1118 0.0746,0.1957 0.2051,0.1957zm0.1165 2.5816c0.1631,0.1026 0.3729,0.1678 0.6245,0.1678 0.452,0 0.7922,-0.2377 0.7922,-0.6431 0,-0.6151 -0.7037,-0.6431 -0.7037,-1.0532 0,-0.233 0.1771,-0.3262 0.4008,-0.3262 0.1537,0 0.3308,0.042 0.4426,0.084l0.0513 -0.2796c-0.1724,-0.0699 -0.3635,-0.0886 -0.5126,-0.0886 -0.4846,0 -0.7269,0.2796 -0.7269,0.6291 0,0.5872 0.7083,0.6244 0.7083,1.0438 0,0.233 -0.219,0.3449 -0.4567,0.3449 -0.1957,0 -0.3681,-0.0606 -0.4987,-0.1399l-0.1211 0.261zm2.7541 0.1678c0.2424,0 0.522,-0.0885 0.6943,-0.2097l-0.0838 -0.2516c-0.1492,0.0885 -0.3495,0.1724 -0.5778,0.1724 -0.3869,0 -0.5779,-0.275 -0.5779,-0.6664 0,-0.6058 0.4054,-1.0625 0.9041,-1.0625 0.177,0 0.3354,0.0419 0.4706,0.1072l0.0653 -0.2889c-0.1398,-0.0606 -0.3309,-0.1072 -0.5359,-0.1072 -0.7131,0 -1.2536,0.6012 -1.2536,1.3933 0,0.5686 0.3588,0.9134 0.8947,0.9134zm1.0252 -0.0466l0.3356 0 0.205 -0.9786c0.0606,-0.2796 0.1351,-0.4473 0.247,-0.5965 0.1864,-0.2563 0.4287,-0.3821 0.6105,-0.3821 0.1537,0 0.2655,0.0839 0.2655,0.3029 0,0.0606 -0.0139,0.1957 -0.0466,0.3542l-0.2749 1.3001 0.3356 0 0.2749 -1.3095c0.0419,-0.2143 0.0559,-0.3308 0.0559,-0.4193 0,-0.3728 -0.2143,-0.5313 -0.4986,-0.5313 -0.3122,0 -0.6338,0.2097 -0.8202,0.4986l-0.0093 0c0.0466,-0.1258 0.0839,-0.2749 0.1165,-0.4194l0.2377 -1.1184 -0.3356 0 -0.699 3.2993zm3.2527 0.0466c0.2423,0 0.5219,-0.0792 0.7223,-0.2097l-0.0932 -0.2516c-0.1724,0.0932 -0.3727,0.1724 -0.6012,0.1724 -0.3448,0 -0.5778,-0.2423 -0.5778,-0.6617 0,-0.042 0.0047,-0.0886 0.0094,-0.1305l1.398 -0.0187c0.0559,-0.1398 0.0978,-0.3355 0.0978,-0.4939 0,-0.4101 -0.233,-0.713 -0.713,-0.713 -0.6477,0 -1.1277,0.5871 -1.1277,1.37 0,0.6058 0.3774,0.9367 0.8854,0.9367zm-0.4939 -1.3467c0.0745,-0.3682 0.3587,-0.6758 0.7037,-0.6758 0.3215,0 0.4053,0.2191 0.4053,0.4148 0,0.0699 -0.0139,0.1631 -0.0372,0.247l-1.0718 0.014zm1.6542 1.3001l0.3356 0 0.1957 -0.9273c0.1444,-0.6944 0.4427,-1.0066 0.713,-1.0066 0.0605,0 0.1304,0.014 0.1817,0.042l0.1398 -0.3029c-0.0653,-0.042 -0.1444,-0.0653 -0.247,-0.0653 -0.2516,0 -0.4893,0.1818 -0.6337,0.4986l-0.0094 0 0.0699 -0.4427 -0.2796 0 -0.466 2.2042zm7.498 0l1.4679 0 0.0652 -0.2935 -1.1324 0 0.5826 -2.7775 -0.3355 0 -0.6478 3.071zm2.8659 0.0466c0.6291,0 1.1744,-0.5965 1.1744,-1.4679 0,-0.4614 -0.2563,-0.8388 -0.8202,-0.8388 -0.6291,0 -1.1743,0.5965 -1.1743,1.4679 0,0.4613 0.261,0.8388 0.8201,0.8388zm0.014 -0.2889c-0.3448,0 -0.4846,-0.2284 -0.4846,-0.5732 0,-0.5825 0.3122,-1.1557 0.8155,-1.1557 0.3402,0 0.4847,0.2283 0.4847,0.5732 0,0.5825 -0.3123,1.1557 -0.8156,1.1557zm2.0785 0.2889c0.1723,0 0.3681,-0.0559 0.5312,-0.1584l-0.0885 -0.2516c-0.084,0.0512 -0.2238,0.1211 -0.3682,0.1211 -0.1444,0 -0.2051,-0.0745 -0.2051,-0.1957 0,-0.0513 0.0047,-0.0979 0.0187,-0.1585l0.2842 -1.3281 0.5453 0 0.1118 -0.2796 -0.6011 0 0.1304 -0.6058 -0.3541 0.1072 -0.1119 0.4986 -0.3587 0 -0.0607 0.2796 0.3589 0 -0.2749 1.3002c-0.0187,0.0932 -0.028,0.177 -0.028,0.2563 0,0.2423 0.1445,0.4147 0.4707,0.4147zm1.5238 0c0.1724,0 0.3681,-0.0559 0.5312,-0.1584l-0.0885 -0.2516c-0.0839,0.0512 -0.2237,0.1211 -0.3682,0.1211 -0.1444,0 -0.2051,-0.0745 -0.2051,-0.1957 0,-0.0513 0.0047,-0.0979 0.0187,-0.1585l0.2843 -1.3281 0.5452 0 0.1118 -0.2796 -0.6011 0 0.1305 -0.6058 -0.3542 0.1072 -0.1119 0.4986 -0.3587 0 -0.0607 0.2796 0.3589 0 -0.2749 1.3002c-0.0187,0.0932 -0.028,0.177 -0.028,0.2563 0,0.2423 0.1445,0.4147 0.4707,0.4147zm1.7614 0c0.6291,0 1.1744,-0.5965 1.1744,-1.4679 0,-0.4614 -0.2563,-0.8388 -0.8202,-0.8388 -0.6291,0 -1.1743,0.5965 -1.1743,1.4679 0,0.4613 0.261,0.8388 0.8201,0.8388zm0.014 -0.2889c-0.3448,0 -0.4846,-0.2284 -0.4846,-0.5732 0,-0.5825 0.3122,-1.1557 0.8155,-1.1557 0.3401,0 0.4846,0.2283 0.4846,0.5732 0,0.5825 -0.3122,1.1557 -0.8155,1.1557zm7.9873 0.2423l0.3355 0 0.5872 -2.7774 0.8528 0 0.1258 -0.2936 -2.1529 0 -0.0653 0.2936 0.904 0 -0.5871 2.7774zm2.5444 0.0466c0.6291,0 1.1744,-0.5965 1.1744,-1.4679 0,-0.4614 -0.2563,-0.8388 -0.8202,-0.8388 -0.6291,0 -1.1743,0.5965 -1.1743,1.4679 0,0.4613 0.261,0.8388 0.8201,0.8388zm0.014 -0.2889c-0.3448,0 -0.4846,-0.2284 -0.4846,-0.5732 0,-0.5825 0.3122,-1.1557 0.8155,-1.1557 0.3402,0 0.4846,0.2283 0.4846,0.5732 0,0.5825 -0.3122,1.1557 -0.8155,1.1557zm2.0784 0.2889c0.1724,0 0.3682,-0.0559 0.5313,-0.1584l-0.0885 -0.2516c-0.084,0.0512 -0.2238,0.1211 -0.3683,0.1211 -0.1444,0 -0.205,-0.0745 -0.205,-0.1957 0,-0.0513 0.0047,-0.0979 0.0186,-0.1585l0.2843 -1.3281 0.5453 0 0.1118 -0.2796 -0.6011 0 0.1304 -0.6058 -0.3542 0.1072 -0.1118 0.4986 -0.3588 0 -0.0606 0.2796 0.3589 0 -0.275 1.3002c-0.0186,0.0932 -0.0279,0.177 -0.0279,0.2563 0,0.2423 0.1444,0.4147 0.4706,0.4147zm1.7614 0c0.6292,0 1.1744,-0.5965 1.1744,-1.4679 0,-0.4614 -0.2563,-0.8388 -0.8202,-0.8388 -0.6291,0 -1.1743,0.5965 -1.1743,1.4679 0,0.4613 0.261,0.8388 0.8201,0.8388zm0.0141 -0.2889c-0.3449,0 -0.4847,-0.2284 -0.4847,-0.5732 0,-0.5825 0.3122,-1.1557 0.8156,-1.1557 0.3401,0 0.4846,0.2283 0.4846,0.5732 0,0.5825 -0.3123,1.1557 -0.8155,1.1557zm8.3275 0.2563l0.2469 0 1.6637 -3.085 -0.3775 0 -1.0252 1.9573c-0.1212,0.2236 -0.2097,0.3914 -0.2936,0.5918l-0.0093 0c-0.0326,-0.2517 -0.0606,-0.4101 -0.1025,-0.6431l-0.3588 -1.906 -0.3635 0 0.6198 3.085zm2.5257 0.0326c0.2423,0 0.5219,-0.0792 0.7222,-0.2097l-0.0932 -0.2516c-0.1724,0.0932 -0.3727,0.1724 -0.6011,0.1724 -0.3448,0 -0.5779,-0.2423 -0.5779,-0.6617 0,-0.042 0.0047,-0.0886 0.0094,-0.1305l1.398 -0.0187c0.0559,-0.1398 0.0978,-0.3355 0.0978,-0.4939 0,-0.4101 -0.233,-0.713 -0.7129,-0.713 -0.6478,0 -1.1277,0.5871 -1.1277,1.37 0,0.6058 0.3774,0.9367 0.8854,0.9367zm-0.494 -1.3467c0.0746,-0.3682 0.3588,-0.6758 0.7037,-0.6758 0.3215,0 0.4054,0.2191 0.4054,0.4148 0,0.0699 -0.014,0.1631 -0.0373,0.247l-1.0718 0.014zm1.6543 1.3001l0.3355 0 0.1957 -0.9273c0.1445,-0.6944 0.4427,-1.0066 0.713,-1.0066 0.0606,0 0.1305,0.014 0.1818,0.042l0.1398 -0.3029c-0.0653,-0.042 -0.1445,-0.0653 -0.2471,-0.0653 -0.2516,0 -0.4893,0.1818 -0.6337,0.4986l-0.0093 0 0.0699 -0.4427 -0.2796 0 -0.466 2.2042zm1.4818 -0.0466c0.1259,0.0466 0.3822,0.0932 0.5872,0.0932 0.8481,0 1.4586,-0.6617 1.4586,-1.5518 0,-0.4986 -0.2796,-0.7549 -0.6385,-0.7549 -0.2842,0 -0.5498,0.1864 -0.7036,0.4194l-0.0093 0c0.0419,-0.1491 0.0792,-0.2889 0.1072,-0.4194l0.219 -1.0392 -0.3355 0 -0.6851 3.2527zm0.3822 -0.2377l0.1584 -0.7549c0.0699,-0.3262 0.1864,-0.5452 0.3216,-0.6943 0.1491,-0.1538 0.3215,-0.2283 0.4566,-0.2283 0.2843,0 0.3775,0.2609 0.3775,0.4846 0,0.7316 -0.4567,1.2303 -1.0345,1.2303 -0.0792,0 -0.1818,-0.0094 -0.2796,-0.0374zm2.4791 0.3309c0.289,0 0.5546,-0.177 0.7363,-0.4055 0,0.1492 0.0326,0.2937 0.0559,0.3822l0.2889 -0.0605c-0.0186,-0.084 -0.0326,-0.1725 -0.0326,-0.275 0,-0.1585 0.028,-0.3495 0.0839,-0.6058l0.0373 -0.1818c0.042,-0.1724 0.0839,-0.3634 0.0839,-0.5405 0,-0.4754 -0.3542,-0.6198 -0.7037,-0.6198 -0.247,0 -0.5219,0.0699 -0.7549,0.1818l0.0466 0.2749c0.205,-0.0979 0.4427,-0.1725 0.6617,-0.1725 0.2936,0 0.4147,0.1259 0.4147,0.3542 0,0.0839 -0.0093,0.1818 -0.0326,0.2656l-0.3401 0.0047c-0.3495,0.0047 -0.6524,0.0699 -0.8529,0.2283 -0.1723,0.1352 -0.2702,0.3356 -0.2702,0.5919 0,0.3355 0.2236,0.5778 0.5778,0.5778zm0.0793 -0.2889c-0.2097,0 -0.317,-0.1119 -0.317,-0.3355 0,-0.1492 0.0607,-0.275 0.1725,-0.3589 0.1445,-0.1118 0.3821,-0.1537 0.713,-0.1537l0.191 0 -0.0419 0.177c-0.0746,0.3961 -0.4194,0.6711 -0.7176,0.6711zm1.4865 0.2423l0.3355 0 0.205 -0.9786c0.0653,-0.2889 0.1398,-0.4613 0.2517,-0.6104 0.1864,-0.2471 0.4287,-0.3682 0.6058,-0.3682 0.1537,0 0.2656,0.0839 0.2656,0.3029 0,0.0606 -0.014,0.1957 -0.0466,0.3542l-0.275 1.3001 0.3356 0 0.2749 -1.3095c0.0419,-0.2143 0.056,-0.3308 0.056,-0.4193 0,-0.3728 -0.2144,-0.5313 -0.4987,-0.5313 -0.3122,0 -0.6338,0.2143 -0.8248,0.4986l-0.0093 0 0.0699 -0.4427 -0.2796 0 -0.466 2.2042zm3.3086 0.0466c0.2237,0 0.5079,-0.0652 0.6803,-0.1445l0.6758 -3.2014 -0.3356 0 -0.233 1.1137c-0.1212,-0.0419 -0.2936,-0.0745 -0.466,-0.0745 -0.6664,0 -1.2628,0.508 -1.2628,1.3514 0,0.6152 0.4053,0.9553 0.9413,0.9553zm0.0326 -0.2935c-0.4194,0 -0.6244,-0.2797 -0.6244,-0.6851 0,-0.6384 0.4286,-1.0345 0.9366,-1.0345 0.1305,0 0.2703,0.0326 0.3775,0.0699l-0.3309 1.5798c-0.0978,0.0419 -0.233,0.0699 -0.3588,0.0699z"/>
   <path class="fil8" d="M53.6791 7.6978l0 1.6695 -0.4245 0 0 0.5959 1.5674 0 0 -0.5959 -0.4327 0 0 -2.2613 -1.098 0 0 0.5918 0.3878 0zm1.4001 1.3919c0,0.3673 0.1999,0.6571 0.4694,0.8082 0.1387,0.0775 0.2938,0.1224 0.5102,0.1224 0.6612,0 1.0081,-0.5102 1.004,-0.9959 0,-0.3674 -0.1306,-0.7347 -0.5837,-0.849l0.5266 -0.9632 0 -0.1062 -1.8163 0 0 0.649 0.8244 0 -0.3795 0.7918 0 0.098c0.3101,-0.0123 0.7183,-0.0286 0.7224,0.3837 -0.0041,0.1918 -0.1143,0.3428 -0.3143,0.3428 -0.1959,0 -0.3184,-0.0939 -0.3224,-0.2816 -0.2082,0 -0.4286,0 -0.6408,0l0 0z"/>
   <path class="fil8" d="M86.5219 16.0345l-2.7651 0.4076c0.0487,0.3301 0.079,0.5357 0.1276,0.8658l1.4881 -0.2193 -0.8193 3.1062c0.3301,-0.0486 0.6656,-0.098 0.9956,-0.1467l0.9946 -3.8674 -0.0215 -0.1462z"/>
   <path class="fil9" d="M65.0539 9.4541c1.7612,0.4284 3.5364,-0.652 3.9649,-2.4133 0.4285,-1.7613 -0.652,-3.5365 -2.4133,-3.9649 -1.7613,-0.4285 -3.5364,0.652 -3.9649,2.4132 -0.4285,1.7614 0.652,3.5365 2.4133,3.965z"/>
   <path class="fil10" d="M65.0056 7.7635c1.2697,0.3089 2.5493,-0.4701 2.8582,-1.7397 0.3089,-1.2697 -0.4699,-2.5494 -1.7396,-2.8583 -1.2698,-0.3088 -2.5495,0.47 -2.8583,1.7398 -0.3089,1.2696 0.47,2.5493 1.7397,2.8582z"/>
   <path class="fil3" d="M65.317 8.3725c1.1639,0.2832 2.337,-0.4308 2.6202,-1.5948 0.2831,-1.164 -0.4309,-2.3371 -1.5948,-2.6202 -1.1639,-0.2832 -2.3371,0.4308 -2.6203,1.5948 -0.2831,1.164 0.4309,2.3371 1.5949,2.6202z"/>
   <path class="fil3" d="M65.8352 3.8299c0.302,0.0112 0.5521,-0.1214 0.5587,-0.2962 0.0064,-0.1748 -0.2331,-0.3255 -0.5351,-0.3368 -0.302,-0.0112 -0.552,0.1213 -0.5585,0.2961 -0.0066,0.1748 0.233,0.3256 0.5349,0.3369z"/>
   <path class="fil3" d="M64.8027 3.8115c0.1467,-0.0643 0.2354,-0.1853 0.1981,-0.2702 -0.0372,-0.0849 -0.1863,-0.1015 -0.3329,-0.0372 -0.1467,0.0643 -0.2354,0.1853 -0.1981,0.2701 0.0372,0.0849 0.1863,0.1016 0.3329,0.0373z"/>
   <path class="fil8" d="M66.1541 4.9541l-0.8605 0.9103c-0.1121,0.1083 -0.1763,0.2501 -0.2096,0.3988 -0.1136,0.508 0.1987,0.8283 0.6665,0.9328 0.4615,0.1032 0.8804,-0.0535 0.994,-0.5616 0.1004,-0.4492 -0.1409,-0.7959 -0.607,-0.8643l0.633 -0.6781 -0.6164 -0.1379zm-0.2984 1.7711c-0.1672,-0.0374 -0.2525,-0.18 -0.2172,-0.3381 0.0326,-0.1456 0.1539,-0.2518 0.3398,-0.2102 0.1828,0.0408 0.2411,0.1872 0.2085,0.3329 -0.0353,0.1579 -0.1577,0.2542 -0.3311,0.2154z"/>
   <g>
    <path class="fil11" d="M71.8755 20.1353c2.7391,0 4.9597,-2.2204 4.9597,-4.9596 0,-2.7391 -2.2206,-4.9597 -4.9597,-4.9597 -2.7392,0 -4.9597,2.2206 -4.9597,4.9597 0,2.7392 2.2205,4.9596 4.9597,4.9596z"/>
    <path class="fil12" d="M71.2007 17.6702c1.9746,0 3.5754,-1.6007 3.5754,-3.5753 0,-1.9746 -1.6008,-3.5753 -3.5754,-3.5753 -1.9746,0 -3.5754,1.6007 -3.5754,3.5753 0,1.9746 1.6008,3.5753 3.5754,3.5753z"/>
    <path class="fil6" d="M71.8755 18.4533c1.8101,0 3.2776,-1.4674 3.2776,-3.2776 0,-1.8102 -1.4675,-3.2776 -3.2776,-3.2776 -1.8102,0 -3.2777,1.4674 -3.2777,3.2776 0,1.8102 1.4675,3.2776 3.2777,3.2776z"/>
    <path class="fil6" d="M71.0138 11.5982c0.4475,-0.0913 0.7673,-0.3754 0.7144,-0.6342 -0.0528,-0.259 -0.4584,-0.3949 -0.9058,-0.3036 -0.4474,0.0914 -0.7673,0.3754 -0.7144,0.6343 0.0529,0.2589 0.4584,0.3949 0.9058,0.3035z"/>
    <path class="fil6" d="M69.4912 11.9401c0.1924,-0.1469 0.2794,-0.3561 0.1944,-0.4675 -0.085,-0.1113 -0.3098,-0.0825 -0.5022,0.0643 -0.1923,0.1468 -0.2794,0.3561 -0.1944,0.4674 0.085,0.1114 0.3099,0.0826 0.5022,-0.0642z"/>
   </g>
   <path class="fil8" d="M70.9542 13.5005l0 1.4008 -0.3562 0 0 0.5 1.3151 0 0 -0.5 -0.363 0 0 -1.8974 -0.9213 0 0 0.4966 0.3254 0zm2.0823 1.9247l0.6987 -1.1609c0.0959,-0.1405 0.1267,-0.3083 0.1267,-0.4727 0,-0.5651 -0.3973,-0.8219 -0.9213,-0.8219 -0.5275,0 -0.911,0.2568 -0.911,0.8219 0,0.4556 0.3288,0.8048 0.8357,0.7672l-0.5104 0.8664 0.6816 0zm-0.0959 -1.9316c0.1884,0 0.3014,0.1302 0.3014,0.298 0,0.185 -0.1027,0.3014 -0.3014,0.3014 -0.1815,0 -0.3014,-0.1267 -0.3014,-0.3014 0,-0.1678 0.1199,-0.298 0.3014,-0.298z"/>
   <polygon class="fil8" points="21.9888,25.6102 16.9104,25.6102 14.8966,35.0956 8.3881,35.0956 10.402,25.6102 5.3528,25.6102 1.0332,46.0404 6.0824,46.0404 8.213,35.8836 14.7215,35.8836 12.5909,46.0404 17.6692,46.0404 "/>
   <polygon class="fil8" points="31.0344,25.6102 25.9852,25.6102 21.6656,46.0404 33.3401,46.0404 33.486,45.3399 26.8608,45.3399 "/>
   <polygon class="fil8" points="50.4431,25.6102 35.8209,25.6102 35.675,26.3106 40.4615,26.3106 36.2879,46.0404 41.3371,46.0404 45.5107,26.3106 50.2972,26.3106 "/>
   <polygon class="fil8" points="59.8005,39.9931 57.912,25.6102 52.6803,25.6102 55.9202,46.0534 56.9576,46.0534 69.2579,25.6102 68.4863,25.6102 "/>
   <polygon class="fil8" points="56.4133,39.9931 64.9937,25.6102 70.2254,25.6102 57.7942,46.0534 56.7568,46.0534 "/>
  </g>
 </g>
</svg>
